<svg xmlns="http://www.w3.org/2000/svg" fill="none" viewBox="0 0 50.778000000000006 50.36363636363637" style="max-height: 500px" width="50.778000000000006" height="50.36363636363637">
<g clip-path="url(#clip0_718_4042)">
<path fill="#0C71B9" d="M39.9599 5.16319C47.5566 11.1007 51.2871 20.4965 49.2722 30.1042C47.2295 39.8299 39.0169 47.8125 28.9738 49.3646C11.5394 52.0625 -2.9684 36.7361 0.727282 19.5174C2.34893 11.9618 8.12908 4.95833 15.423 2.0243C21.7669 -0.524306 28.7859 -0.541667 35.1368 2.30555C36.8529 3.08165 38.5095 4.02843 39.9599 5.16319ZM14.1111 44.7882C27.0285 51.9375 43.5895 44.6771 47.0137 30.3542C51.4959 11.6181 32.5895 -3.40972 15.3012 4.28125C12.3224 5.60764 8.88422 8.64583 6.93199 11.1528C4.47168 14.309 2.28281 19.566 2.21321 23.7847C2.07053 32.684 6.31256 40.4688 14.1145 44.7847L14.1111 44.7882Z" style="--darkreader-inline-fill: var(--darkreader-background-0c71b9, #0a5a94);" data-darkreader-inline-fill=""/>
<path fill="#222222" d="M143.477 37.2431C143.933 37.4896 145.231 37.0972 145.155 37.8507C145.068 38.684 144.177 38.5694 143.536 38.4931C142.179 38.3299 142.082 37.4201 142.273 36.2361C140.178 38.7049 136.058 39.9757 133.187 38.1424C130.549 36.4583 131.708 32.8333 133.939 31.3264C136.169 29.8194 138.195 30.0903 140.78 29.7465C141.671 29.6285 143.616 29.3993 143.951 28.4826C144.399 27.2569 144.365 25.1146 143.014 24.4826C140.993 23.5417 137.749 24.0938 136.364 25.9097C135.961 26.441 135.414 28.0035 135.157 28.2222C134.729 28.5833 134.047 28.5035 134.148 27.7847C134.29 26.7674 135.595 24.8889 136.423 24.2639C139.173 22.191 145.684 21.9896 145.513 26.7326C145.416 29.4792 143.839 33.1701 143.505 35.9792C143.456 36.3993 143.46 36.8229 143.488 37.2396L143.477 37.2431ZM143.578 30.3333C142.99 30.5 142.405 30.6736 141.8 30.7708C139.009 31.2257 134.245 30.7743 133.131 34.0451C132.362 36.3056 133.671 37.6215 135.898 37.8194C140.15 38.1979 143.296 34.2778 143.578 30.3299V30.3333Z" style="--darkreader-inline-fill: var(--darkreader-background-222222, #1a1c1d);" data-darkreader-inline-fill=""/>
<path fill="#222222" d="M162.478 31.4688C162.164 33.6215 162.269 36.2778 164.503 37.3403C167.374 38.7049 170.464 37.0903 172.18 34.7326C172.475 34.3299 172.924 33.1354 173.091 32.9757C173.387 32.691 174.344 32.6319 174.177 33.4306C174.073 33.934 172.872 35.7326 172.489 36.1771C169.114 40.1181 161.841 40.2813 161.141 34.1042C160.776 30.8611 162.255 26.8507 164.813 24.7743C169.382 21.0625 175.851 22.7431 175.211 29.3542C175.183 29.6528 174.828 31.4688 174.598 31.4688H162.474H162.478ZM173.86 30.3333C174.734 26.6042 172.771 23.2708 168.595 24.1181C165.564 24.7326 163.511 27.5069 162.704 30.3333H173.86Z" style="--darkreader-inline-fill: var(--darkreader-background-222222, #1a1c1d);" data-darkreader-inline-fill=""/>
<path fill="#222222" d="M149.473 23.434L152.292 36.5764C152.49 36.6319 152.567 36.2951 152.661 36.1528C155.323 32.1944 157.494 27.6389 160.153 23.6424C160.327 23.2743 161.329 23.1181 161.448 23.4792C161.549 23.7882 160.94 24.6979 160.752 25.0312C158.465 29.0937 155.699 33.8958 153.124 37.7465C152.943 38.0208 152.748 38.4375 152.403 38.5035C151.993 38.5833 151.415 38.5868 151.356 38.0799L148.273 23.7743C148.241 23.1528 149.066 23.2049 149.477 23.4375L149.473 23.434Z" style="--darkreader-inline-fill: var(--darkreader-background-222222, #1a1c1d);" data-darkreader-inline-fill=""/>
<path fill="#222222" d="M127.226 25.2639C128.099 24.4514 129.182 23.8368 130.351 23.5556C130.821 23.441 132.582 23.0243 132.745 23.6042C133.055 24.6979 131.127 24.5243 130.372 24.7153C124.961 26.0833 125.128 33.7639 123.826 38.0556C123.749 38.5938 122.699 38.7361 122.625 38.2222C123.694 33.2882 124.595 28.2847 125.872 23.4063C127.64 22.7014 126.499 25.2014 126.391 26.0799C126.774 26.0035 126.993 25.4826 127.226 25.2674V25.2639Z" style="--darkreader-inline-fill: var(--darkreader-background-222222, #1a1c1d);" data-darkreader-inline-fill=""/>
<path fill="#222222" d="M181.697 17.5208C181.92 17.875 180.671 22.5833 180.497 23.3854C179.442 28.2882 178.503 33.2153 177.386 38.1042C177.319 38.6215 176.338 38.7014 176.248 38.2188C177.553 31.3333 179.094 24.4479 180.632 17.6181C180.733 17.2882 181.6 17.3646 181.697 17.5208Z" style="--darkreader-inline-fill: var(--darkreader-background-222222, #1a1c1d);" data-darkreader-inline-fill=""/>
<path fill="url(#paint0_linear_718_4042)" d="M91.6124 18.6389C90.6316 18.6389 89.47 19.4802 88.9746 20.7778C88.3726 22.3576 88.6336 24.0312 90.5823 24.2049C92.1196 24.3427 93.7968 24.2658 95.4761 24.1888C97.3511 24.1028 99.2288 24.0167 100.918 24.2292C104.119 24.6319 104.624 28.2812 104.418 30.8403C104.116 34.6076 100.911 38.4792 97.0654 39.1736L79.7737 39.184L79.4257 39.0764C79.3564 38.9823 79.3732 38.8817 79.3899 38.7815C79.3942 38.7559 79.3985 38.7303 79.4013 38.7049C79.5196 37.6562 80.1077 35.0729 80.4349 34.0486C80.4412 34.0293 80.4472 34.0095 80.4534 33.9896L80.4534 33.9896C80.4977 33.8453 80.5442 33.6938 80.7063 33.6389L95.1306 33.6076C97.1768 33.5312 98.1198 29.8889 96.2267 29.0208C94.7166 28.8982 93.1604 28.9341 91.6034 28.97C89.7661 29.0124 87.9278 29.0548 86.1628 28.8368C80.2713 28.1111 80.9499 20.3924 83.6503 16.7118C85.439 14.2733 88.042 13.5417 90.805 13.4028L128.555 13.4618C128.671 13.539 128.665 13.6461 128.658 13.7637V13.7637L128.656 13.7917C128.625 14.3808 128.453 15.2986 128.327 15.9668L128.327 15.9669L128.291 16.1632C128.218 16.5694 127.859 18.4687 127.64 18.5764L118.975 18.6979L114.493 39.1805H108.8C108.758 39.1805 108.608 39.0139 108.65 38.9236C108.982 37.5479 109.257 36.1619 109.532 34.7761L109.532 34.7761C109.681 34.0284 109.829 33.2807 109.986 32.5347C110.31 30.9917 110.702 29.3867 111.099 27.7607L111.099 27.7606C111.749 25.1019 112.413 22.387 112.812 19.7951C112.816 19.7727 112.821 19.7425 112.828 19.7062C112.883 19.3937 113.018 18.6354 112.784 18.6354H91.6124V18.6389ZM125.709 15.8021H107.324C107.324 15.8021 107.324 15.8021 107.323 15.8021H107.321C107.15 15.8021 107.119 16.3194 107.15 16.4826H115.631C115.673 16.4826 115.822 16.6493 115.78 16.7396C115.465 18.0683 115.196 19.4062 114.927 20.7441C114.792 21.4131 114.658 22.0821 114.517 22.75C114.133 24.5712 113.722 26.4043 113.309 28.2426C112.722 30.8554 112.133 33.4788 111.618 36.0938C111.608 36.1445 111.597 36.2031 111.584 36.2675C111.493 36.7181 111.345 37.4514 111.357 37.7674C111.363 37.9101 111.468 37.966 111.6 37.9652C111.821 37.9656 112.118 37.8042 112.133 37.625L116.657 16.5937L125.517 16.4861L125.521 16.4861L125.712 15.8021H125.709ZM53.9353 39.1875C53.8622 39.1667 53.6534 38.9375 53.6777 38.816L59.1064 13.5799L59.5101 13.4132L66.1568 13.4375L72.264 29.9931L76.0223 13.4201H81.7712L76.4051 39.1736H69.3826C69.1739 38.638 68.9925 38.092 68.8114 37.5468L68.8114 37.5468L68.8114 37.5467C68.6966 37.2012 68.5819 36.856 68.4605 36.5139C67.9062 34.9583 67.352 33.3721 66.7942 31.7755C65.9089 29.2418 65.0146 26.682 64.0966 24.1771C64.0207 23.9712 63.9549 23.7059 63.8908 23.4472L63.8908 23.4472C63.8198 23.1606 63.7507 22.8821 63.6721 22.7014C63.6129 22.566 63.4146 22.5208 63.2789 22.5L59.5205 39.191H53.9422L53.9353 39.1875Z" clip-rule="evenodd" fill-rule="evenodd"/>
<path fill="url(#paint1_linear_718_4042)" d="M21.4526 12.3746C21.8435 12.4527 22.2123 12.5263 22.4593 12.6215C22.2256 12.3405 22.0715 11.9455 21.9162 11.5473C21.6091 10.7598 21.297 9.95966 20.354 10.0035C19.4631 10.0451 19.2091 11.3299 19.7798 11.8299C20.0927 12.103 20.803 12.2449 21.4526 12.3746ZM22.8964 14.7417L22.8665 14.7153C22.2018 14.1285 20.253 12.5868 19.4979 12.3403C17.5039 11.6875 15.0401 13.0833 16.7696 15.1736C17.747 16.3555 19.5609 16.0921 21.271 15.8436C22.2035 15.7082 23.1051 15.5772 23.8234 15.6875C23.5669 15.3338 23.2218 15.0291 22.8964 14.7418L22.8964 14.7417L22.8964 14.7417L22.8964 14.7417L22.8964 14.7417L22.8964 14.7417ZM34.1275 13.9826C33.3132 13.9132 32.9652 14.059 32.9304 14.8924L32.9339 14.8958C32.9459 14.8781 32.9576 14.8591 32.9694 14.8399C33.0359 14.7318 33.1064 14.6171 33.2749 14.6701C33.363 14.7973 33.3183 15.1924 33.2889 15.4524C33.2742 15.5829 33.2633 15.6794 33.2749 15.691C33.2811 15.6984 33.3092 15.6961 33.347 15.6931C33.4159 15.6877 33.5171 15.6797 33.5777 15.7222C34.0092 16.0243 34.4894 17.1181 33.4698 16.5764C32.993 16.3229 32.913 15.4028 32.9339 14.8993C32.1647 16.0506 32.7079 18.77 33.1349 20.9076L33.135 20.9077C33.2913 21.6906 33.4322 22.3954 33.4872 22.9167C33.9152 26.9965 33.7378 33.8368 31.5419 37.4097C30.6963 38.7847 29.2974 39.7917 27.721 40.184C27.4307 40.256 27.0942 40.2764 26.7527 40.297H26.7527C26.3695 40.3201 25.9802 40.3437 25.6435 40.441C25.6806 40.5892 25.835 40.6602 25.9719 40.7232C26.0018 40.7369 26.0308 40.7502 26.0576 40.7639C30.9817 43.2778 37.343 41.5799 39.0794 36.0694C40.2053 32.4932 38.8332 30.382 37.3786 28.144C36.4549 26.7229 35.4979 25.2506 35.1262 23.3194C34.9209 22.2465 34.2945 18.6944 34.4372 17.816C34.4656 17.6376 34.596 17.3591 34.7191 17.0958L34.7191 17.0958C34.8525 16.8109 34.9774 16.5438 34.9557 16.441C34.9216 16.2732 34.6675 16.0545 34.462 15.8776L34.462 15.8775C34.374 15.8018 34.2949 15.7337 34.2458 15.6806C34.1819 15.6111 34.1515 15.5183 34.1238 15.434C34.1004 15.3624 34.0789 15.2968 34.0405 15.2569C33.9339 15.148 33.7613 15.1941 33.675 15.2171C33.6458 15.2249 33.6264 15.2301 33.6229 15.2257C33.5916 15.1875 33.355 14.4167 33.6682 14.5521C33.7308 14.5799 34.6738 15.4375 34.7156 15.4931C34.7612 15.5556 34.787 15.6328 34.8161 15.72C34.8581 15.8456 34.907 15.9921 35.0323 16.1458C35.2654 16.434 36.0693 16.8125 35.7735 16.3715C35.7602 16.3516 35.5843 16.2725 35.4486 16.2114C35.3714 16.1766 35.3072 16.1477 35.2933 16.1389C35.1123 16.0243 35.1158 15.5521 35.5125 15.6701C35.7083 15.7288 35.7708 15.7996 35.8404 15.8784C35.882 15.9256 35.9262 15.9757 36.0032 16.0278C35.983 15.9166 35.9669 15.8139 35.952 15.7181C35.8665 15.1709 35.8165 14.851 35.2272 14.4757C35.0706 14.375 34.2771 13.9965 34.1275 13.9826ZM19.0422 24.7622C19.1386 24.8243 19.2308 24.8838 19.2717 24.9965H16.5991C16.2546 24.9965 14.9462 25.4167 14.5668 25.5799L14.5539 25.5854C14.1749 25.7484 13.6268 25.9842 13.5855 26.4201C13.5663 26.6063 13.6639 26.6219 13.7914 26.6424C13.8256 26.6478 13.8619 26.6536 13.8987 26.6632C14.4068 26.7917 14.9914 26.8264 15.5169 26.8125C14.793 27.7535 14.8592 29.2222 16.0041 29.7882C17.8415 30.6944 19.1882 27.8507 16.9958 27.6076C17.0711 27.7243 17.178 27.774 17.2902 27.8262C17.4218 27.8874 17.5606 27.952 17.664 28.1319C18.1442 28.9618 16.9784 29.7743 16.2511 28.9757C15.5238 28.1771 16.3172 27.0382 17.2777 26.9236C18.0055 26.8396 19.2554 26.889 20.0543 26.9206L20.1312 26.9236C22.2227 27.0069 26.8823 27.3889 28.4865 28.6944C28.6466 28.8229 28.9389 29.1354 29.0016 29.316C29.0334 29.4073 29.0369 29.5194 29.0403 29.6262C29.0457 29.7994 29.0507 29.9587 29.1756 29.9931C29.3252 29.1215 28.9354 28.6944 28.3195 28.1806C27.6495 27.6231 26.8528 27.2759 26.0568 26.929C25.6084 26.7336 25.1603 26.5383 24.7352 26.3056C25.1354 26.3125 25.7478 26.3854 26.1272 26.4861C26.1705 26.4991 26.3868 26.5768 26.5891 26.6494L26.5894 26.6496C26.7117 26.6935 26.8289 26.7356 26.8997 26.7604C27.1273 26.8382 27.3445 26.9439 27.5612 27.0493C27.8281 27.1792 28.0944 27.3088 28.3787 27.3854C28.5404 27.2504 25.9501 24.6756 25.4781 24.2064L25.4781 24.2063L25.4781 24.2063L25.478 24.2063L25.478 24.2062L25.4779 24.2062L25.4778 24.2061L25.4778 24.2061L25.4777 24.206L25.4207 24.1493C25.4887 24.0215 25.6096 24.1033 25.7098 24.1711C25.7431 24.1935 25.774 24.2145 25.8 24.2257C26.3359 24.4514 27.2616 25.0208 27.7036 25.3924C27.7967 25.4711 27.8686 25.5761 27.9423 25.6837C28.0669 25.8656 28.1964 26.0547 28.4413 26.1354C28.4923 25.7698 28.1659 25.4835 27.8669 25.2213C27.7371 25.1075 27.6124 24.9982 27.5261 24.8889L25.3094 23.2986C25.8511 23.3837 26.3154 23.6734 26.7822 23.9646C27.173 24.2084 27.5654 24.4533 28.0063 24.5799C28.2621 24.9154 28.6032 25.2075 28.941 25.4967L28.941 25.4967L28.941 25.4967L28.9411 25.4968L28.9411 25.4968L28.9411 25.4968L28.9411 25.4968L28.9412 25.4968L28.9412 25.4969C29.0997 25.6326 29.2574 25.7676 29.4052 25.9062C29.186 25.3819 28.8972 24.7743 28.6118 24.2882C28.3966 23.927 27.9949 23.331 27.7104 22.9088L27.7103 22.9088L27.6548 22.8264C27.5846 22.7219 27.375 22.4588 27.1428 22.1672L27.1428 22.1672L27.1427 22.1671L27.1427 22.1671C26.7653 21.6932 26.3282 21.1443 26.3325 21.0799C26.3394 20.9757 26.59 20.8819 26.7222 20.9062C26.7551 20.9125 26.7852 20.9716 26.8227 21.0451C26.8684 21.1349 26.925 21.2461 27.011 21.309C27.1504 21.4116 27.3778 21.5106 27.6182 21.6153C27.8581 21.7198 28.1109 21.83 28.3021 21.9549C30.056 23.1076 31.3401 24.6424 32.0152 26.6528L32.3632 28.2917C32.398 27.6354 32.3527 26.9861 32.217 26.3403C31.9769 25.2014 31.2948 23.9896 30.6371 23.0347C30.415 22.71 30.158 22.3983 29.9019 22.0875L29.9018 22.0875L29.9018 22.0875L29.9018 22.0874L29.9018 22.0874L29.9017 22.0874L29.9017 22.0874L29.9017 22.0873L29.9017 22.0873C29.7607 21.9162 29.6199 21.7455 29.4853 21.5729C29.472 21.5559 29.4596 21.539 29.4477 21.5226C29.3814 21.4317 29.3264 21.3563 29.179 21.3681C29.2179 21.1326 29.3131 21.2323 29.4075 21.3311C29.4231 21.3474 29.4387 21.3637 29.454 21.3785C29.5865 21.5058 29.7245 21.6339 29.864 21.7634L29.8641 21.7636L29.8642 21.7636C30.219 22.093 30.5829 22.4308 30.8877 22.7847C31.0752 23.0023 31.2355 23.246 31.3955 23.4894C31.6185 23.8285 31.8412 24.1672 32.137 24.434C31.8377 23.1215 31.4027 21.6076 30.8703 20.4201C30.3379 19.2326 29.186 17.6181 28.0028 17.0347C27.4982 16.7847 25.8836 16.2153 25.6643 17.0208C25.6156 17.1979 25.8766 18.059 25.9845 18.2222C26.0259 18.2834 26.0936 18.3175 26.1612 18.3517C26.2241 18.3834 26.2871 18.4152 26.329 18.4687L26.3608 18.5093C26.7112 18.9566 27.0482 19.3867 27.4704 19.7743L26.4508 19.1458C23.7643 17.4201 19.2299 16.0312 16.0249 17.1597C15.8127 17.2361 14.9879 17.5868 15.3568 17.8576C15.6344 18.0613 16.7385 18.2053 17.6262 18.321C18.2517 18.4026 18.7698 18.4701 18.8158 18.5347L18.5235 19.4444C17.9814 19.2202 17.4486 18.9763 16.9179 18.7334C14.9993 17.8551 13.1085 16.9895 10.906 17.1146C9.74367 17.1771 7.52696 18.25 8.18814 19.6493C8.65097 20.6215 10.3179 20.9479 11.3062 20.9097L9.94203 21.309C9.89403 21.3388 9.81327 21.3736 9.72103 21.4133L9.72102 21.4133L9.721 21.4133C9.45882 21.5262 9.10394 21.6789 9.14512 21.8715C9.23158 22.2822 11.5623 22.4596 12.0387 22.4959L12.0474 22.4965C13.0081 22.5681 13.9918 22.5607 14.9735 22.5533C15.944 22.5459 16.9126 22.5386 17.8554 22.6076C17.9876 22.6181 18.708 22.7153 18.708 22.7847C18.6736 22.8657 18.6552 22.9615 18.6368 23.057C18.5936 23.2811 18.5507 23.5034 18.3043 23.5278C15.2663 23.0174 11.0695 22.3958 8.51874 24.5451C7.13721 25.7083 6.59782 27.8576 9.079 27.8368C10.1091 27.8299 12.2979 27.0556 13.0113 26.2951C13.0599 26.2432 13.0618 26.1741 13.0635 26.1109C13.0652 26.0473 13.0668 25.9897 13.1157 25.9618L13.2316 25.8928L13.2316 25.8928L13.2316 25.8928C14.4773 25.1513 16.5135 23.9392 17.8763 23.7743C18.5129 23.6981 18.552 23.8462 18.6216 24.1104C18.6566 24.2433 18.6993 24.4055 18.8298 24.5833C18.8879 24.6628 18.9664 24.7133 19.0422 24.7622ZM23.2011 19.8818C22.8661 19.858 22.5334 19.8342 22.2888 19.8889L22.2818 19.8854C21.9443 19.9618 21.6276 20.5139 21.8712 20.8611L23.2493 22.2708C20.1104 20.8646 16.9123 20.6319 13.5124 20.6771C13.4308 20.6781 13.3329 20.7057 13.2389 20.7321C13.0245 20.7924 12.8301 20.847 12.893 20.5694C13.522 20.4672 14.1298 20.3003 14.7343 20.1343L14.7343 20.1343L14.7343 20.1343L14.7343 20.1343L14.7344 20.1343L14.7344 20.1343L14.7344 20.1343L14.7344 20.1342L14.7344 20.1342C15.8956 19.8153 17.0445 19.4998 18.3078 19.6528C18.6369 19.6918 18.6798 19.8053 18.7376 19.958C18.7672 20.0362 18.8007 20.1247 18.8785 20.2187C19.3274 20.7535 20.0268 21.0243 20.5871 20.4583C21.1926 19.8437 20.615 19 20.4096 19.2049C21.3631 20.684 18.7776 20.4896 19.6232 19.1597C20.0024 18.5642 21.7442 19.0787 22.4823 19.2967L22.595 19.3299C22.6398 19.3436 22.6607 19.3879 22.6818 19.4325C22.7033 19.4782 22.725 19.5242 22.7725 19.5382L24.0531 19.8889C23.8099 19.9252 23.5046 19.9034 23.2011 19.8818ZM22.6045 23.1521C22.8593 23.2131 23.0841 23.2669 23.2562 23.2951V23.2986L22.0765 23.6528C21.645 23.9514 21.7459 24.5556 21.9269 24.9653L22.9152 25.6806C22.7773 25.6325 22.3878 25.5578 21.95 25.4738L21.95 25.4738L21.95 25.4738L21.9499 25.4738C21.2169 25.3331 20.3484 25.1664 20.2983 25.0556C20.9351 24.9514 21.2205 23.7465 20.8655 23.4097C20.63 23.1874 20.6801 23.5955 20.7155 23.8839C20.7287 23.9919 20.7399 24.0831 20.7333 24.1181C20.5767 24.9479 19.0907 24.6076 19.4353 23.5174C19.7673 22.4725 21.4785 22.8824 22.6045 23.1521ZM29.4505 37.9861C28.504 38.7986 27.3939 39.6285 26.1028 39.7535C26.3081 39.5032 26.585 39.3477 26.8629 39.1918C27.0514 39.086 27.2404 38.9799 27.4078 38.8437C28.6675 37.8229 29.701 35.7014 29.4018 34.0799L28.8554 35.7465C27.7732 38.1493 24.9997 39.6076 22.4036 39.5069C21.9826 39.4896 20.9525 39.3368 20.869 38.9028C20.6915 37.9826 21.036 36.6007 21.4884 35.7812C21.7564 35.2986 22.689 34.2708 23.0822 33.9653C23.9101 33.3251 24.9458 32.8742 25.9826 32.4229C28.1231 31.4911 30.2683 30.5572 30.5989 27.9514C31.6324 29.9132 32.5059 32.7049 31.7368 34.8715C31.267 36.191 30.491 37.0937 29.454 37.9861H29.4505ZM12.9556 16.1424C11.3792 15.8264 12.1587 12.9514 13.8709 13.8681C14.3279 14.1136 14.3966 14.3939 14.4715 14.6992C14.5077 14.8472 14.5454 15.001 14.6295 15.1597C14.6666 15.2294 14.7433 15.2875 14.8259 15.3498C14.9448 15.4397 15.0756 15.5387 15.1167 15.6944C15.1515 15.8229 15.0854 16.1424 15.061 16.1424C14.8863 16.1424 14.6639 16.1517 14.4258 16.1617H14.4258C13.8954 16.1839 13.2871 16.2095 12.9556 16.1424ZM33.8143 10.8368C34.2145 11.2153 34.305 12.8438 34.298 13.4167C34.0961 13.4628 34.0796 13.4071 34.0546 13.3232C34.0439 13.287 34.0315 13.2456 34.0022 13.2049C33.9332 13.1075 33.8744 13.0043 33.8158 12.9011C33.7384 12.7652 33.6612 12.6293 33.5603 12.507C33.4729 12.4009 33.2292 12.2018 33.0235 12.0337L33.0234 12.0337L33.0234 12.0336C32.852 11.8937 32.7071 11.7752 32.7007 11.75C32.4919 10.9201 33.2575 10.3125 33.8143 10.8368ZM34.6391 13.3055C34.9905 12.9861 35.683 11.9132 35.2933 11.5174C35.0392 11.2569 34.6182 11.5104 34.5416 11.7986C34.5079 11.9255 34.5491 12.1553 34.5941 12.4069C34.6514 12.7269 34.715 13.082 34.6391 13.3055ZM33.8421 13.5313C33.6917 13.4625 33.5087 13.4077 33.3207 13.3515C32.73 13.1747 32.0907 12.9834 32.2623 12.2986C32.8711 12.0128 33.264 12.6364 33.5929 13.1585L33.5929 13.1585C33.6795 13.2959 33.7616 13.4263 33.8421 13.5313ZM35.1777 16.9368C35.0634 16.9229 34.962 16.9107 34.9801 17.0486H34.9766L36.3407 17.3333L36.321 17.3162C36.1203 17.1412 35.6968 16.7721 35.4882 16.7083C35.458 16.7004 35.4495 16.7417 35.4394 16.7915C35.4273 16.8509 35.4127 16.9224 35.3559 16.9375C35.3037 16.952 35.2389 16.9442 35.1777 16.9368Z" clip-rule="evenodd" fill-rule="evenodd"/>
</g>
<defs>
<linearGradient gradientUnits="userSpaceOnUse" y2="39.191" x2="91.1684" y1="13.4028" x1="91.1684" id="paint0_linear_718_4042">
<stop stop-color="#2092D0" style="--darkreader-inline-stopcolor: var(--darkreader-background-2092d0, #1a75a6);" data-darkreader-inline-stopcolor=""/>
<stop stop-color="#2082C3" offset="1" style="--darkreader-inline-stopcolor: var(--darkreader-background-2082c3, #1a689c);" data-darkreader-inline-stopcolor=""/>
</linearGradient>
<linearGradient gradientUnits="userSpaceOnUse" y2="41.9001" x2="23.4219" y1="10.0018" x1="23.4219" id="paint1_linear_718_4042">
<stop stop-color="#2092D0" style="--darkreader-inline-stopcolor: var(--darkreader-background-2092d0, #1a75a6);" data-darkreader-inline-stopcolor=""/>
<stop stop-color="#2082C3" offset="1" style="--darkreader-inline-stopcolor: var(--darkreader-background-2082c3, #1a689c);" data-darkreader-inline-stopcolor=""/>
</linearGradient>
<clipPath id="clip0_718_4042">
<rect fill="white" height="50" width="182" style="--darkreader-inline-fill: var(--darkreader-text-ffffff, #e8e6e3);" data-darkreader-inline-fill=""/>
</clipPath>
</defs>
</svg>